<mxfile host="app.diagrams.net" modified="2024-03-03T21:09:17.883Z" agent="Mozilla/5.0 (Macintosh; Intel Mac OS X 10_15_7) AppleWebKit/537.36 (KHTML, like Gecko) Chrome/122.0.0.0 Safari/537.36" etag="Eg92dAWb-W9zMf7R4evO" version="24.0.0" type="github">
  <diagram name="Page-1" id="G-6zXEK1sRrUFYiMj41M">
    <mxGraphModel dx="1149" dy="790" grid="1" gridSize="10" guides="1" tooltips="1" connect="1" arrows="1" fold="1" page="1" pageScale="1" pageWidth="850" pageHeight="1100" math="0" shadow="0">
      <root>
        <mxCell id="0" />
        <mxCell id="1" parent="0" />
        <mxCell id="TOrfxqDZ1ky7K3yFx9_m-4" value="" style="edgeStyle=orthogonalEdgeStyle;rounded=0;orthogonalLoop=1;jettySize=auto;html=1;entryX=0;entryY=0.617;entryDx=0;entryDy=0;entryPerimeter=0;" parent="1" source="TOrfxqDZ1ky7K3yFx9_m-1" target="TOrfxqDZ1ky7K3yFx9_m-3" edge="1">
          <mxGeometry relative="1" as="geometry" />
        </mxCell>
        <mxCell id="TOrfxqDZ1ky7K3yFx9_m-10" style="edgeStyle=orthogonalEdgeStyle;rounded=0;orthogonalLoop=1;jettySize=auto;html=1;entryX=0;entryY=0.5;entryDx=0;entryDy=0;" parent="1" source="TOrfxqDZ1ky7K3yFx9_m-1" target="TOrfxqDZ1ky7K3yFx9_m-9" edge="1">
          <mxGeometry relative="1" as="geometry" />
        </mxCell>
        <mxCell id="TOrfxqDZ1ky7K3yFx9_m-13" style="edgeStyle=orthogonalEdgeStyle;rounded=0;orthogonalLoop=1;jettySize=auto;html=1;entryX=0;entryY=0.5;entryDx=0;entryDy=0;" parent="1" source="TOrfxqDZ1ky7K3yFx9_m-1" target="TOrfxqDZ1ky7K3yFx9_m-11" edge="1">
          <mxGeometry relative="1" as="geometry">
            <Array as="points">
              <mxPoint x="260" y="610" />
            </Array>
          </mxGeometry>
        </mxCell>
        <mxCell id="TOrfxqDZ1ky7K3yFx9_m-17" style="edgeStyle=orthogonalEdgeStyle;rounded=0;orthogonalLoop=1;jettySize=auto;html=1;entryX=0;entryY=0.5;entryDx=0;entryDy=0;" parent="1" source="TOrfxqDZ1ky7K3yFx9_m-1" target="TOrfxqDZ1ky7K3yFx9_m-16" edge="1">
          <mxGeometry relative="1" as="geometry">
            <Array as="points">
              <mxPoint x="260" y="720" />
            </Array>
          </mxGeometry>
        </mxCell>
        <mxCell id="TOrfxqDZ1ky7K3yFx9_m-19" style="edgeStyle=orthogonalEdgeStyle;rounded=0;orthogonalLoop=1;jettySize=auto;html=1;entryX=0;entryY=0.5;entryDx=0;entryDy=0;" parent="1" source="TOrfxqDZ1ky7K3yFx9_m-1" target="TOrfxqDZ1ky7K3yFx9_m-18" edge="1">
          <mxGeometry relative="1" as="geometry">
            <Array as="points">
              <mxPoint x="260" y="820" />
            </Array>
          </mxGeometry>
        </mxCell>
        <mxCell id="TOrfxqDZ1ky7K3yFx9_m-1" value="Contract&lt;br&gt;InitWhitelistStatuses" style="rounded=0;whiteSpace=wrap;html=1;fillColor=#E6D0DE;" parent="1" vertex="1">
          <mxGeometry x="110" y="100" width="200" height="90" as="geometry" />
        </mxCell>
        <mxCell id="TOrfxqDZ1ky7K3yFx9_m-3" value="function&lt;br&gt;addWhielistStatuses" style="whiteSpace=wrap;html=1;rounded=0;fillColor=#7EA6E0;" parent="1" vertex="1">
          <mxGeometry x="425" y="310" width="180" height="60" as="geometry" />
        </mxCell>
        <mxCell id="TOrfxqDZ1ky7K3yFx9_m-9" value="function&lt;br&gt;addBean3CrvStatus" style="whiteSpace=wrap;html=1;rounded=0;fillColor=#7EA6E0;" parent="1" vertex="1">
          <mxGeometry x="425" y="460" width="180" height="60" as="geometry" />
        </mxCell>
        <mxCell id="TOrfxqDZ1ky7K3yFx9_m-11" value="function&lt;br&gt;addBeanStatus" style="whiteSpace=wrap;html=1;rounded=0;fillColor=#7EA6E0;" parent="1" vertex="1">
          <mxGeometry x="420" y="580" width="180" height="60" as="geometry" />
        </mxCell>
        <mxCell id="TOrfxqDZ1ky7K3yFx9_m-16" value="function&lt;br&gt;addUnripeLPStatus" style="whiteSpace=wrap;html=1;rounded=0;fillColor=#7EA6E0;" parent="1" vertex="1">
          <mxGeometry x="425" y="690" width="180" height="60" as="geometry" />
        </mxCell>
        <mxCell id="TOrfxqDZ1ky7K3yFx9_m-18" value="function&lt;br&gt;addBeanEthStatus" style="whiteSpace=wrap;html=1;rounded=0;fillColor=#7EA6E0;" parent="1" vertex="1">
          <mxGeometry x="430" y="790" width="180" height="60" as="geometry" />
        </mxCell>
        <mxCell id="rFsBY9ajKE-JGyZe6oww-4" style="edgeStyle=orthogonalEdgeStyle;rounded=0;orthogonalLoop=1;jettySize=auto;html=1;entryX=0;entryY=0.5;entryDx=0;entryDy=0;" edge="1" parent="1" source="rFsBY9ajKE-JGyZe6oww-1" target="rFsBY9ajKE-JGyZe6oww-3">
          <mxGeometry relative="1" as="geometry">
            <Array as="points">
              <mxPoint x="740" y="230" />
              <mxPoint x="880" y="230" />
              <mxPoint x="880" y="340" />
            </Array>
          </mxGeometry>
        </mxCell>
        <mxCell id="rFsBY9ajKE-JGyZe6oww-6" style="edgeStyle=orthogonalEdgeStyle;rounded=0;orthogonalLoop=1;jettySize=auto;html=1;entryX=0;entryY=0.5;entryDx=0;entryDy=0;" edge="1" parent="1" target="rFsBY9ajKE-JGyZe6oww-5">
          <mxGeometry relative="1" as="geometry">
            <mxPoint x="740" y="90" as="sourcePoint" />
            <Array as="points">
              <mxPoint x="740" y="430" />
            </Array>
          </mxGeometry>
        </mxCell>
        <mxCell id="rFsBY9ajKE-JGyZe6oww-8" style="edgeStyle=orthogonalEdgeStyle;rounded=0;orthogonalLoop=1;jettySize=auto;html=1;entryX=0;entryY=0.5;entryDx=0;entryDy=0;" edge="1" parent="1" target="rFsBY9ajKE-JGyZe6oww-7">
          <mxGeometry relative="1" as="geometry">
            <mxPoint x="740" y="90" as="sourcePoint" />
            <Array as="points">
              <mxPoint x="740" y="530" />
            </Array>
          </mxGeometry>
        </mxCell>
        <mxCell id="rFsBY9ajKE-JGyZe6oww-12" style="edgeStyle=orthogonalEdgeStyle;rounded=0;orthogonalLoop=1;jettySize=auto;html=1;entryX=0;entryY=0.5;entryDx=0;entryDy=0;" edge="1" parent="1" source="rFsBY9ajKE-JGyZe6oww-1" target="rFsBY9ajKE-JGyZe6oww-11">
          <mxGeometry relative="1" as="geometry">
            <Array as="points">
              <mxPoint x="740" y="730" />
            </Array>
          </mxGeometry>
        </mxCell>
        <mxCell id="rFsBY9ajKE-JGyZe6oww-13" style="edgeStyle=orthogonalEdgeStyle;rounded=0;orthogonalLoop=1;jettySize=auto;html=1;entryX=0;entryY=0.5;entryDx=0;entryDy=0;" edge="1" parent="1" source="rFsBY9ajKE-JGyZe6oww-1" target="rFsBY9ajKE-JGyZe6oww-9">
          <mxGeometry relative="1" as="geometry">
            <Array as="points">
              <mxPoint x="740" y="630" />
            </Array>
          </mxGeometry>
        </mxCell>
        <mxCell id="rFsBY9ajKE-JGyZe6oww-1" value="Contract&lt;br&gt;BDVFacet" style="rounded=0;whiteSpace=wrap;html=1;fillColor=#E6D0DE;" vertex="1" parent="1">
          <mxGeometry x="640" y="70" width="200" height="90" as="geometry" />
        </mxCell>
        <mxCell id="rFsBY9ajKE-JGyZe6oww-16" style="edgeStyle=orthogonalEdgeStyle;rounded=0;orthogonalLoop=1;jettySize=auto;html=1;entryX=0;entryY=0.5;entryDx=0;entryDy=0;" edge="1" parent="1" source="rFsBY9ajKE-JGyZe6oww-3" target="rFsBY9ajKE-JGyZe6oww-15">
          <mxGeometry relative="1" as="geometry" />
        </mxCell>
        <mxCell id="rFsBY9ajKE-JGyZe6oww-3" value="function&lt;br&gt;curveToBDV" style="whiteSpace=wrap;html=1;rounded=0;fillColor=#7EA6E0;" vertex="1" parent="1">
          <mxGeometry x="970" y="310" width="180" height="60" as="geometry" />
        </mxCell>
        <mxCell id="rFsBY9ajKE-JGyZe6oww-5" value="function&lt;br&gt;beanToBDV" style="whiteSpace=wrap;html=1;rounded=0;fillColor=#7EA6E0;" vertex="1" parent="1">
          <mxGeometry x="970" y="400" width="180" height="60" as="geometry" />
        </mxCell>
        <mxCell id="rFsBY9ajKE-JGyZe6oww-7" value="function&lt;br&gt;unripeLPToBDV" style="whiteSpace=wrap;html=1;rounded=0;fillColor=#7EA6E0;" vertex="1" parent="1">
          <mxGeometry x="970" y="500" width="180" height="60" as="geometry" />
        </mxCell>
        <mxCell id="rFsBY9ajKE-JGyZe6oww-9" value="function&lt;br&gt;unripeBeanToBDV" style="whiteSpace=wrap;html=1;rounded=0;fillColor=#7EA6E0;" vertex="1" parent="1">
          <mxGeometry x="970" y="600" width="180" height="60" as="geometry" />
        </mxCell>
        <mxCell id="rFsBY9ajKE-JGyZe6oww-11" value="function&lt;br&gt;wellBDV" style="whiteSpace=wrap;html=1;rounded=0;fillColor=#7EA6E0;" vertex="1" parent="1">
          <mxGeometry x="970" y="700" width="180" height="60" as="geometry" />
        </mxCell>
        <mxCell id="rFsBY9ajKE-JGyZe6oww-15" value="LibBeanMetaCurve:bdv" style="rounded=1;whiteSpace=wrap;html=1;fillColor=#CDA2BE;" vertex="1" parent="1">
          <mxGeometry x="1300" y="310" width="145" height="60" as="geometry" />
        </mxCell>
      </root>
    </mxGraphModel>
  </diagram>
</mxfile>
